# xmcd
#
# Track frame offsets:
#	150
#	17765
#	32299
#	46588
#	65038
#	81688
#	98094
#	109794
#	127786
#	147949
#	165564
#	180098
#	194387
#	212837
#	229487
#	245893
#	257593
#	275585
#
# Disc length: 3943 seconds
#
# Revision: 2
# Processed by: cddbd v1.5.2PL0 Copyright (c) Steve Scherf et al.
# Submitted via: audiograbber 1.83.01
#
DISCID=f90f6512
DTITLE=Various Artist - PHN0201
DYEAR=2002
DGENRE=Karaoke
TTITLE0=Aaron Tippin - Where The Stars And Stripes And The Eagle Fly
TTITLE1=George Jones/Garth Brooks - Beer Run
TTITLE2=Toby Keith - I Wanna Talk About Me
TTITLE3=Jamie O'Neal - Shiver
TTITLE4=Sara Evans - Saints And Angels
TTITLE5=Clint Black/Lisa Hartman Black - Easy For Me To Say
TTITLE6=Dixie Chicks - Some Days You Gotta Dance
TTITLE7=George Strait - Run
TTITLE8=David Ball - Riding With Private Malone
TTITLE9=Aaron Tippin - Where The Stars And Stripes And The Eagle Fly (Vocal)
TTITLE10=George Jones/Garth Brooks - Beer Run (Vocal)
TTITLE11=Toby Keith - I Wanna Talk About Me (Vocal)
TTITLE12=Jamie O'Neal - Shiver (Vocal)
TTITLE13=Sara Evans - Saints And Angels (Vocal)
TTITLE14=Clint Black/Lisa Hartman Black - Easy For Me To Say (Vocal)
TTITLE15=Dixie Chicks - Some Days You Gotta Dance (Vocal)
TTITLE16=George Strait - Run (Vocal)
TTITLE17=David Ball - Riding With Private Malone (Vocal)
EXTD=fixed album name and vocal listings
EXTT0=
EXTT1=
EXTT2=
EXTT3=
EXTT4=
EXTT5=
EXTT6=
EXTT7=
EXTT8=
EXTT9=
EXTT10=
EXTT11=
EXTT12=
EXTT13=
EXTT14=
EXTT15=
EXTT16=
EXTT17=
PLAYORDER=
